<svg width="1024" height="1024" viewBox="0 0 1024 1024" fill="none" xmlns="http://www.w3.org/2000/svg">
<mask id="mask0_80710_369" style="mask-type:luminance" maskUnits="userSpaceOnUse" x="216" y="105" width="629" height="814">
<path d="M845 105H216V919H845V105Z" fill="white"/>
</mask>
<g mask="url(#mask0_80710_369)">
<path d="M417.029 118.228L520.954 133.739C535.732 135.945 546.421 137.549 554.402 139.877C562.272 142.172 566.93 145.019 570.053 149.336C573.176 153.653 574.46 159.016 574.264 167.325C574.064 175.75 572.377 186.584 570.031 201.556L521.983 508.041C519.633 523.011 517.927 533.845 515.537 541.944C513.177 549.929 510.309 554.672 506.006 557.88C501.703 561.088 496.386 562.446 488.172 562.342C479.843 562.235 469.15 560.648 454.372 558.442L350.448 542.932C335.67 540.723 324.98 539.121 317 536.794C309.13 534.496 304.472 531.651 301.348 527.333C298.224 523.019 296.941 517.654 297.138 509.343C297.336 500.919 299.026 490.085 301.374 475.115L349.421 168.629C351.768 153.657 353.475 142.825 355.866 134.727C358.225 126.741 361.092 121.998 365.395 118.789C369.699 115.581 375.016 114.223 383.23 114.328C391.558 114.434 402.251 116.022 417.029 118.228Z" fill="#5EDC5F" stroke="#29003D" stroke-width="5"/>
<path d="M702.435 288.312L580.676 243.33C566.394 238.055 550.739 245.577 545.707 260.134L471.529 474.711C466.497 489.267 473.997 505.344 488.279 510.62L610.039 555.601C624.321 560.877 639.976 553.355 645.008 538.799L719.185 324.221C724.217 309.665 716.717 293.588 702.435 288.312Z" fill="#5EDC5F" stroke="#29003D" stroke-width="5"/>
<path d="M630.348 219.501L482.307 149.432C468.532 142.913 452.289 149.022 446.029 163.078L321.463 442.647C315.2 456.704 321.289 473.383 335.063 479.903L483.107 549.97C496.882 556.489 513.125 550.38 519.385 536.324L643.949 256.755C650.213 242.699 644.123 226.02 630.348 219.501Z" fill="#5EDC5F" stroke="#29003D" stroke-width="5"/>
<path d="M457.965 395.058L526.234 241.835L537.692 247.258L469.424 400.48L457.965 395.058ZM470.978 385.368C462.198 381.214 455.286 375.969 450.239 369.636C445.307 363.357 442.425 356.499 441.596 349.062C440.819 341.51 442.118 333.952 445.485 326.39L457.972 332.3C455.689 337.419 454.731 342.67 455.09 348.054C455.456 353.437 457.262 358.521 460.518 363.301C463.822 367.965 468.839 371.888 475.566 375.072C481.497 377.878 486.895 379.236 491.768 379.149C496.804 378.997 501.159 377.746 504.829 375.398C508.496 373.048 511.289 369.722 513.21 365.418C515.489 360.299 516.247 355.656 515.481 351.49C514.827 347.377 513.117 343.468 510.35 339.764C507.582 336.059 504.174 332.402 500.123 328.794C496.234 325.123 492.116 321.201 487.761 317.027C479.976 309.398 474.981 302.175 472.776 295.353C470.567 288.533 471.067 281.373 474.271 273.873C477.12 267.474 481.06 262.506 486.089 258.969C491.28 255.369 497.292 253.495 504.122 253.347C511.008 253.083 518.268 254.758 525.904 258.374C533.315 261.881 539.11 266.384 543.287 271.883C547.631 277.319 550.199 283.326 550.998 289.902C551.849 296.362 550.82 302.849 547.919 309.365L535.602 303.536C537.263 299.814 537.9 295.749 537.519 291.34C537.3 286.87 535.802 282.64 533.023 278.648C530.415 274.594 526.256 271.219 520.558 268.521C515.881 266.309 511.334 265.211 506.905 265.23C502.646 265.185 498.765 266.306 495.261 268.593C491.809 270.762 489.123 274.001 487.206 278.305C485.337 282.493 484.723 286.357 485.356 289.896C485.985 293.436 487.569 296.86 490.096 300.17C492.623 303.48 495.775 306.943 499.549 310.56C503.371 314.06 507.604 318.038 512.248 322.489C516.954 327.111 520.85 331.844 523.94 336.686C527.029 341.529 528.842 346.754 529.379 352.363C529.971 357.854 528.787 363.916 525.834 370.547C523.296 376.249 519.374 381.015 514.079 384.847C508.947 388.618 502.69 390.728 495.313 391.18C487.983 391.515 479.873 389.577 470.978 385.368Z" fill="#29003D"/>
<path d="M216 412.523C216 378.611 216 361.656 226.379 351.122C236.758 340.586 253.463 340.586 286.873 340.586H739.254C763.6 340.586 775.777 340.586 784.586 346.401C788.738 349.141 792.275 352.734 794.976 356.948C800.704 365.889 800.704 378.246 800.704 402.959C800.704 408.959 800.704 411.958 800.141 415.126C799.893 416.518 799.46 418.291 799.039 419.638C798.077 422.708 796.881 425.001 794.491 429.588C695.446 619.685 413.331 711.223 232.964 517.402C224.998 508.84 221.015 504.559 218.507 498.158C216 491.757 216 485.164 216 471.981V412.523Z" fill="#29003D"/>
<path d="M216 871.141C216 891.006 231.866 907.108 251.437 907.108H765.269C784.838 907.108 800.704 891.006 800.704 871.141V709.284C702.102 906.49 396.631 943.971 216 839.672V871.141Z" fill="#29003D"/>
<path d="M216 533.941C414.783 738.818 730.911 648.008 845 385.572C809.103 642.651 494.784 807.005 216 691.298V533.941Z" fill="#5EDC5F"/>
<path d="M216 704.774C409.24 901.658 734.285 817.291 845 556.407C754.317 868.717 462.916 945.696 216 808.185V704.774Z" fill="#5EDC5F"/>
<path d="M295.728 742.31C520.385 791.395 731.392 684.502 802.913 549.651C720.521 787.92 488.198 841.57 295.728 742.31Z" fill="#29003D"/>
</g>
</svg>
