<svg width="25" height="24" viewBox="0 0 25 24" fill="none" xmlns="http://www.w3.org/2000/svg">
<path d="M16.349 6.717C16.602 6.198 16.75 5.618 16.75 5H18.25C19.078 5 19.75 5.672 19.75 6.5V10.419C19.106 10.141 18.412 10.003 17.716 10.009V9.167C17.62 8.167 17.11 7.293 16.349 6.717ZM7.781 10.003V9.188C7.872 8.179 8.384 7.297 9.15 6.717C8.897 6.198 8.749 5.618 8.749 5H7.249C6.421 5 5.749 5.672 5.749 6.5V10.412C5.754 10.412 5.759 10.411 5.765 10.41C6.405 10.135 7.093 9.999 7.781 10.003ZM11.08 11.275L12.75 12.811L14.39 11.301C14.806 10.929 15.266 10.638 15.75 10.427V9.499C15.75 8.671 15.078 7.999 14.25 7.999H11.25C10.422 7.999 9.75 8.671 9.75 9.499V10.418C10.224 10.625 10.674 10.91 11.08 11.273V11.275ZM8.75 4C9.855 4 10.75 3.105 10.75 2C10.75 0.895 9.855 0 8.75 0C7.645 0 6.75 0.895 6.75 2C6.75 3.105 7.645 4 8.75 4ZM12.75 7C13.855 7 14.75 6.105 14.75 5C14.75 3.895 13.855 3 12.75 3C11.645 3 10.75 3.895 10.75 5C10.75 6.105 11.645 7 12.75 7ZM16.75 4C17.855 4 18.75 3.105 18.75 2C18.75 0.895 17.855 0 16.75 0C15.645 0 14.75 0.895 14.75 2C14.75 3.105 15.645 4 16.75 4ZM19.457 13.101C18.718 11.847 17.067 11.644 16.05 12.568L14.237 14.214L15.111 15.008C16.029 15.842 16.576 16.995 16.698 18.22L19.185 15.688C19.788 14.96 19.937 13.916 19.457 13.102V13.101ZM24.75 6.5V18.89C24.75 19.888 24.377 20.851 23.703 21.588L21.5 24H16.75V20.981L20.783 16.893C21.472 16.061 21.788 15.022 21.739 14H21.75V6.5C21.75 5.672 22.422 5 23.25 5C24.078 5 24.75 5.672 24.75 6.5ZM14.75 18.708V24H4L1.797 21.588C1.124 20.851 0.75 19.889 0.75 18.89V6.5C0.75 5.672 1.422 5 2.25 5C3.078 5 3.75 5.672 3.75 6.5V14H3.761C3.711 15.022 4.028 16.061 4.717 16.893L8.154 20.365L9.558 18.961L6.315 15.686C5.712 14.958 5.563 13.914 6.043 13.1C6.782 11.846 8.433 11.643 9.45 12.567L13.767 16.487C14.393 17.056 14.75 17.862 14.75 18.708Z" fill="#5BB552"/>
</svg>
