<svg width="25" height="24" viewBox="0 0 25 24" fill="none" xmlns="http://www.w3.org/2000/svg">
<g clip-path="url(#clip0_551_1485)">
<path d="M11.23 16L14.25 13.623V17.441L13.25 18.228V24L7.25 21V18.228L0.25 12.719V6.99H0.251C0.257 5.89 1.149 5.001 2.25 5.001H5.25C6.009 5.001 6.661 5.429 7 6.051C7.339 5.428 7.991 5.001 8.75 5.001H11.75C12.509 5.001 13.161 5.429 13.5 6.051C13.839 5.428 14.491 5.001 15.25 5.001H18.25C19.355 5.001 20.25 5.896 20.25 7.001L20.248 10.001L3.249 9.992V11.263L9.269 16.001L11.23 16ZM3.75 4C4.855 4 5.75 3.105 5.75 2C5.75 0.895 4.855 0 3.75 0C2.645 0 1.75 0.895 1.75 2C1.75 3.105 2.645 4 3.75 4ZM10.25 4C11.355 4 12.25 3.105 12.25 2C12.25 0.895 11.355 0 10.25 0C9.145 0 8.25 0.895 8.25 2C8.25 3.105 9.145 4 10.25 4ZM16.75 4C17.855 4 18.75 3.105 18.75 2C18.75 0.895 17.855 0 16.75 0C15.645 0 14.75 0.895 14.75 2C14.75 3.105 15.645 4 16.75 4ZM21.935 17.267L18.894 16.761C18.521 16.699 18.25 16.379 18.25 16C18.25 15.448 18.699 15 19.25 15H21.25C21.801 15 22.25 15.448 22.25 16H24.25C24.25 14.346 22.904 13 21.25 13V12H19.25V13C17.596 13 16.25 14.346 16.25 16C16.25 17.359 17.224 18.51 18.565 18.733L21.606 19.239C21.979 19.301 22.25 19.621 22.25 20C22.25 20.552 21.801 21 21.25 21H19.25C18.699 21 18.25 20.552 18.25 20H16.25C16.25 21.654 17.596 23 19.25 23V24H21.25V23C22.904 23 24.25 21.654 24.25 20C24.25 18.641 23.276 17.49 21.935 17.267Z" fill="#5BB552"/>
</g>
<defs>
<clipPath id="clip0_551_1485">
<rect width="24" height="24" fill="white" transform="translate(0.25)"/>
</clipPath>
</defs>
</svg>
