<svg width="145" height="74" viewBox="0 0 145 74" fill="none" xmlns="http://www.w3.org/2000/svg">
<path d="M23.6948 73.0117C21.4106 73.0117 19.856 72.5856 19.031 71.7333C18.2128 70.8742 17.8037 69.5923 17.8037 67.8877H20.7083C20.7083 69.2241 20.9708 70.0832 21.4959 70.4651C22.0209 70.8469 22.747 71.0378 23.6743 71.0378C24.5948 71.0378 25.3175 70.8844 25.8426 70.5776C26.3744 70.2707 26.6403 69.8241 26.6403 69.2378C26.6403 68.5355 26.296 68.0514 25.6073 67.7855C24.9255 67.5127 23.9709 67.2468 22.7436 66.9877C20.9299 66.5786 19.6549 66.115 18.9185 65.5968C18.1821 65.0786 17.8139 64.2365 17.8139 63.0706C17.8139 61.9524 18.2333 60.9944 19.0719 60.1966C19.9174 59.3989 21.4447 59 23.6539 59C25.8835 59 27.4142 59.4398 28.246 60.3194C29.0779 61.1989 29.4938 62.4433 29.4938 64.0524H26.5789C26.5789 62.7501 26.3096 61.9114 25.771 61.5364C25.2323 61.1614 24.5164 60.9739 23.6232 60.9739C22.6891 60.9739 21.9561 61.1341 21.4243 61.4546C20.8924 61.7751 20.6265 62.2046 20.6265 62.7433C20.6265 63.4456 20.9742 63.9331 21.6697 64.2058C22.372 64.4786 23.3266 64.7479 24.5334 65.0138C26.4017 65.4297 27.6971 65.8763 28.4199 66.3536C29.1426 66.8309 29.504 67.6593 29.504 68.8389C29.504 69.998 29.0915 70.9833 28.2665 71.7947C27.4483 72.606 25.9244 73.0117 23.6948 73.0117Z" fill="#5EDC5F"/>
<path d="M35.6081 73.0526C34.9126 73.0526 34.2922 72.9947 33.7467 72.8788C33.2012 72.756 32.7307 72.5549 32.3353 72.2753C31.9466 71.9958 31.65 71.6174 31.4455 71.1401C31.2409 70.656 31.1387 70.0526 31.1387 69.3298C31.1387 68.6412 31.2375 68.065 31.4353 67.6014C31.633 67.1377 31.9194 66.7695 32.2944 66.4968C32.6762 66.2172 33.1433 66.0161 33.6955 65.8934C34.2478 65.7706 34.8751 65.7093 35.5774 65.7093H39.4639V65.157C39.4639 64.5433 39.3548 64.0524 39.1366 63.6842C38.9252 63.316 38.6218 63.0501 38.2263 62.8865C37.8309 62.716 37.357 62.6308 36.8047 62.6308C36.3547 62.6308 35.9422 62.7058 35.5672 62.8558C35.1922 63.0058 34.8751 63.2512 34.616 63.5922C34.3637 63.9263 34.1865 64.3797 34.0842 64.9524L31.2716 64.1854C31.4012 63.5376 31.633 62.9921 31.9671 62.549C32.308 62.0989 32.7239 61.741 33.2149 61.4751C33.7058 61.2023 34.2547 61.0046 34.8615 60.8819C35.4683 60.7523 36.1127 60.6875 36.7945 60.6875C37.9945 60.6875 39.007 60.841 39.8321 61.1478C40.6571 61.4546 41.281 61.9455 41.7037 62.6205C42.1333 63.2887 42.348 64.182 42.348 65.3002V72.9299H39.9548L39.7093 71.4776C39.6071 71.6617 39.44 71.8458 39.2082 72.0299C38.9764 72.2072 38.6832 72.3742 38.3286 72.531C37.9809 72.6879 37.5786 72.814 37.1218 72.9095C36.6649 73.0049 36.1604 73.0526 35.6081 73.0526ZM36.2524 71.1912C36.7843 71.1912 37.265 71.1299 37.6945 71.0071C38.1241 70.8776 38.4854 70.7105 38.7786 70.506C39.0786 70.3014 39.2934 70.0867 39.423 69.8616V67.2945H36.2524C35.9388 67.2945 35.6456 67.3218 35.3729 67.3764C35.1069 67.4241 34.8751 67.5161 34.6774 67.6525C34.4797 67.7889 34.3262 67.9866 34.2172 68.2457C34.1081 68.498 34.0535 68.8253 34.0535 69.2275C34.0535 69.6298 34.1081 69.9605 34.2172 70.2196C34.3262 70.4719 34.4797 70.6696 34.6774 70.8128C34.8819 70.9492 35.1172 71.048 35.3831 71.1094C35.649 71.164 35.9388 71.1912 36.2524 71.1912Z" fill="#5EDC5F"/>
<path d="M47.2908 72.9299L43.4862 60.8H46.5033L49.2545 70.9764H49.275L52.0364 60.8H55.0433L51.2284 72.9299H47.2908Z" fill="#5EDC5F"/>
<path d="M61.7869 73.0322C59.6664 73.0322 58.1664 72.4833 57.2868 71.3855C56.4004 70.281 55.9572 68.7707 55.9572 66.8547C55.9572 64.857 56.4072 63.3297 57.3073 62.2728C58.2005 61.216 59.6766 60.6875 61.7358 60.6875C63.8631 60.6875 65.3563 61.2194 66.2154 62.283C67.0609 63.3603 67.4837 64.8774 67.4837 66.8343C67.4837 67.1548 67.4632 67.4479 67.4223 67.7139H58.463V65.965H64.579C64.5108 64.7376 64.2756 63.8785 63.8733 63.3876C63.362 62.8285 62.6528 62.549 61.746 62.549C60.8528 62.549 60.1301 62.849 59.5778 63.449C59.0187 64.0422 58.7391 65.1774 58.7391 66.8547C58.7391 68.4775 59.0153 69.5991 59.5675 70.2196C60.1062 70.8537 60.846 71.1708 61.7869 71.1708V73.0322ZM61.7869 71.1708C62.3324 71.1708 62.796 71.0924 63.1779 70.9355C63.5597 70.7719 63.8597 70.4958 64.0779 70.1071C64.2893 69.7185 64.4597 69.2753 64.5893 68.7775L67.1666 69.4935C67.0371 70.3048 66.737 70.973 66.2666 71.4981C65.7961 72.0299 65.2165 72.4185 64.5279 72.664C63.8392 72.9095 62.9256 73.0322 61.7869 73.0322V71.1708Z" fill="#5EDC5F"/>
<path d="M69.2468 72.9299V59.1227H71.3332V65.1161H77.5311V59.1227H79.6175V72.9299H77.5311V66.5684H71.3332V72.9299H69.2468Z" fill="#29003D"/>
<path d="M85.9015 73.0424C85.2742 73.0424 84.7049 72.9879 84.1935 72.8788C83.689 72.7629 83.2492 72.5685 82.8742 72.2958C82.506 72.0231 82.223 71.6515 82.0253 71.181C81.8344 70.7037 81.7389 70.1037 81.7389 69.381C81.7389 68.6855 81.8344 68.1093 82.0253 67.6525C82.2162 67.1888 82.4889 66.8241 82.8435 66.5582C83.2049 66.2854 83.6412 66.0911 84.1526 65.9752C84.664 65.8593 85.2367 65.8013 85.8708 65.8013H89.8289V65.1161C89.8289 64.4001 89.7096 63.824 89.4709 63.3876C89.2323 62.9444 88.8914 62.6205 88.4482 62.416C88.005 62.2114 87.48 62.1092 86.8731 62.1092C86.3481 62.1092 85.8777 62.2012 85.4617 62.3853C85.0458 62.5694 84.7015 62.866 84.4288 63.2751C84.1628 63.6774 83.9788 64.216 83.8765 64.8911L81.8514 64.349C81.9605 63.6808 82.1617 63.1149 82.4549 62.6512C82.7549 62.1876 83.123 61.8126 83.5594 61.5262C84.0026 61.2398 84.5038 61.0319 85.0629 60.9023C85.622 60.766 86.222 60.6978 86.8629 60.6978C87.9402 60.6978 88.8539 60.8478 89.6039 61.1478C90.3539 61.4478 90.9232 61.9285 91.3119 62.5899C91.7074 63.2512 91.9051 64.1274 91.9051 65.2183V72.9299H90.1766L90.0028 71.3958C89.9141 71.5662 89.7607 71.7469 89.5425 71.9378C89.3243 72.1288 89.0448 72.3094 88.7039 72.4799C88.363 72.6435 87.9573 72.7799 87.4868 72.889C87.0231 72.9913 86.4947 73.0424 85.9015 73.0424ZM86.3515 71.6821C86.972 71.6821 87.5175 71.6071 87.9879 71.4571C88.4652 71.3003 88.8573 71.1026 89.1641 70.8639C89.4709 70.6253 89.6823 70.3798 89.7982 70.1276V66.9673H86.3515C86.0038 66.9673 85.6765 67.0013 85.3697 67.0695C85.0629 67.1309 84.7935 67.2468 84.5617 67.4173C84.3367 67.5809 84.1594 67.8161 84.0299 68.123C83.9003 68.4298 83.8356 68.8218 83.8356 69.2991C83.8356 69.7901 83.8969 70.1889 84.0197 70.4958C84.1492 70.8026 84.3299 71.0412 84.5617 71.2117C84.7935 71.3821 85.0629 71.5049 85.3697 71.5799C85.6765 71.6481 86.0038 71.6821 86.3515 71.6821Z" fill="#29003D"/>
<path d="M97.0633 72.9299L93.2382 60.8H95.4167L98.4849 71.4878H98.5054L101.584 60.8H103.752L99.9065 72.9299H97.0633Z" fill="#29003D"/>
<path d="M110.137 73.0322C108.256 73.0322 106.902 72.4867 106.077 71.3958C105.245 70.298 104.829 68.7809 104.829 66.8445C104.829 64.7922 105.255 63.2547 106.108 62.2319C106.953 61.2023 108.286 60.6875 110.107 60.6875C111.982 60.6875 113.325 61.2023 114.136 62.2319C114.941 63.2615 115.343 64.7888 115.343 66.8138C115.343 67.0525 115.33 67.2741 115.302 67.4786H106.609V66.19H113.257C113.202 64.7036 112.933 63.6535 112.449 63.0399C111.89 62.3853 111.109 62.058 110.107 62.058C109.132 62.058 108.344 62.4024 107.744 63.091C107.137 63.7865 106.834 65.0377 106.834 66.8445C106.834 68.5559 107.127 69.7832 107.714 70.5264C108.293 71.2833 109.101 71.6617 110.137 71.6617V73.0322ZM110.137 71.6617C110.731 71.6617 111.249 71.5628 111.692 71.3651C112.135 71.1674 112.48 70.8299 112.725 70.3526C112.957 69.8753 113.131 69.3366 113.247 68.7366L115.108 69.2378C114.992 70.0696 114.726 70.7753 114.31 71.3549C113.888 71.9412 113.342 72.3674 112.674 72.6333C112.006 72.8992 111.16 73.0322 110.137 73.0322V71.6617Z" fill="#29003D"/>
<path d="M117.422 72.9299V60.8103H119.048L119.488 63.1524V72.9299H117.422ZM125.021 72.9299V66.0059C125.021 64.6013 124.81 63.6058 124.387 63.0194C123.971 62.433 123.337 62.1399 122.485 62.1399C121.632 62.1399 120.91 62.4535 120.317 63.0808C119.723 63.7081 119.427 64.499 119.427 65.4536L118.424 64.8195C118.424 63.824 118.871 62.8865 119.764 62.0069C120.664 61.1273 121.82 60.6875 123.231 60.6875C124.636 60.6875 125.628 61.1614 126.208 62.1092C126.794 63.0501 127.087 64.3456 127.087 65.9956V72.9299H125.021Z" fill="#29003D"/>
<mask id="mask0_1172_475" style="mask-type:luminance" maskUnits="userSpaceOnUse" x="52" y="1" width="41" height="52">
<path d="M92.875 1.33301H52.5V52.6663H92.875V1.33301Z" fill="white"/>
</mask>
<g mask="url(#mask0_1172_475)">
<path d="M65.404 2.16716L72.0749 3.14537C73.0234 3.28446 73.7096 3.38563 74.2219 3.53242C74.727 3.67718 75.026 3.85671 75.2265 4.12894C75.4269 4.40119 75.5094 4.73941 75.4968 5.26338C75.4839 5.79468 75.3756 6.47791 75.2251 7.42211L72.1409 26.75C71.9901 27.6941 71.8806 28.3773 71.7272 28.888C71.5756 29.3916 71.3916 29.6907 71.1154 29.893C70.8392 30.0953 70.4979 30.1809 69.9706 30.1744C69.436 30.1676 68.7496 30.0675 67.8011 29.9285L61.1302 28.9503C60.1817 28.811 59.4954 28.71 58.9832 28.5632C58.478 28.4183 58.179 28.2389 57.9785 27.9666C57.778 27.6945 57.6957 27.3562 57.7083 26.8321C57.721 26.3008 57.8295 25.6176 57.9802 24.6736L61.0643 5.34563C61.215 4.40142 61.3245 3.71834 61.478 3.20769C61.6294 2.70406 61.8134 2.40491 62.0897 2.20258C62.3659 2.00026 62.7072 1.91463 63.2345 1.92125C63.7691 1.92795 64.4554 2.02805 65.404 2.16716Z" fill="#5EDC5F" stroke="#29003D" stroke-width="0.5"/>
<path d="M83.7239 12.8931L75.9083 10.0565C74.9915 9.72377 73.9866 10.1982 73.6636 11.1161L68.9022 24.6481C68.5792 25.566 69.0607 26.5798 69.9774 26.9126L77.7931 29.7492C78.7098 30.0819 79.7147 29.6076 80.0377 28.6896L84.7991 15.1577C85.1221 14.2397 84.6407 13.2259 83.7239 12.8931Z" fill="#5EDC5F" stroke="#29003D" stroke-width="0.5"/>
<path d="M79.0966 8.55409L69.594 4.13537C68.7098 3.72423 67.6671 4.10951 67.2653 4.9959L59.2695 22.6264C58.8675 23.5128 59.2583 24.5647 60.1425 24.9758L69.6453 29.3945C70.5295 29.8056 71.5721 29.4204 71.974 28.5339L79.9696 10.9035C80.3717 10.0171 79.9808 8.96523 79.0966 8.55409Z" fill="#5EDC5F" stroke="#29003D" stroke-width="0.5"/>
<path d="M68.0315 19.6246L72.4136 9.96191L73.1492 10.3039L68.767 19.9666L68.0315 19.6246ZM68.8668 19.0136C68.3032 18.7516 67.8596 18.4208 67.5356 18.0214C67.219 17.6255 67.034 17.193 66.9808 16.724C66.9309 16.2477 67.0143 15.7711 67.2304 15.2942L68.032 15.6669C67.8854 15.9897 67.8239 16.3209 67.847 16.6604C67.8705 16.9999 67.9864 17.3205 68.1954 17.6219C68.4075 17.916 68.7295 18.1635 69.1613 18.3643C69.542 18.5412 69.8885 18.6269 70.2013 18.6213C70.5245 18.6118 70.8041 18.5329 71.0397 18.3848C71.275 18.2366 71.4544 18.0269 71.5776 17.7554C71.7239 17.4326 71.7726 17.1398 71.7234 16.8771C71.6814 16.6177 71.5717 16.3712 71.394 16.1376C71.2164 15.904 70.9976 15.6734 70.7376 15.4458C70.488 15.2143 70.2236 14.967 69.9441 14.7038C69.4444 14.2227 69.1238 13.7671 68.9822 13.3369C68.8404 12.9068 68.8725 12.4553 69.0782 11.9823C69.261 11.5788 69.514 11.2655 69.8367 11.0424C70.17 10.8154 70.5559 10.6972 70.9943 10.6879C71.4363 10.6712 71.9023 10.7769 72.3925 11.0049C72.8682 11.2261 73.2401 11.5101 73.5083 11.8568C73.7871 12.1996 73.9519 12.5785 74.0032 12.9932C74.0578 13.4005 73.9918 13.8097 73.8056 14.2206L73.015 13.853C73.1216 13.6182 73.1625 13.3619 73.138 13.0839C73.124 12.8019 73.0278 12.5352 72.8494 12.2835C72.682 12.0278 72.415 11.8149 72.0493 11.6448C71.7491 11.5053 71.4572 11.4361 71.1729 11.4373C70.8996 11.4345 70.6504 11.5051 70.4255 11.6494C70.2039 11.7861 70.0315 11.9904 69.9085 12.2618C69.7885 12.5259 69.7491 12.7696 69.7897 12.9928C69.8301 13.216 69.9317 13.4319 70.094 13.6407C70.2562 13.8494 70.4585 14.0679 70.7008 14.2959C70.9461 14.5167 71.2178 14.7675 71.5159 15.0482C71.818 15.3397 72.0681 15.6382 72.2664 15.9435C72.4647 16.2489 72.5811 16.5785 72.6155 16.9322C72.6535 17.2784 72.5775 17.6607 72.388 18.0789C72.225 18.4384 71.9733 18.739 71.6334 18.9807C71.304 19.2185 70.9024 19.3516 70.4288 19.3801C69.9583 19.4012 69.4377 19.279 68.8668 19.0136Z" fill="#29003D"/>
<path d="M52.5 20.726C52.5 18.5874 52.5 17.5182 53.1662 16.8539C53.8324 16.1895 54.9047 16.1895 57.0493 16.1895H86.0873C87.65 16.1895 88.4316 16.1895 88.9971 16.5561C89.2636 16.7289 89.4906 16.9555 89.664 17.2213C90.0317 17.7851 90.0316 18.5644 90.0316 20.1229C90.0316 20.5012 90.0316 20.6904 89.9955 20.8902C89.9796 20.9779 89.9518 21.0898 89.9248 21.1747C89.863 21.3683 89.7863 21.5129 89.6329 21.8022C83.2752 33.7903 65.1665 39.5629 53.5889 27.34C53.0776 26.8001 52.8219 26.5301 52.661 26.1264C52.5 25.7228 52.5 25.307 52.5 24.4756V20.726Z" fill="#29003D"/>
<path d="M52.5 49.6486C52.5 50.9013 53.5184 51.9168 54.7747 51.9168H87.7571C89.0133 51.9168 90.0316 50.9013 90.0316 49.6486V39.4414C83.7025 51.8778 64.0946 54.2415 52.5 47.6641V49.6486Z" fill="#29003D"/>
<path d="M52.5 28.383C65.2597 41.3031 85.5517 35.5764 92.875 19.0264C90.5708 35.2386 70.3949 45.6032 52.5 38.3064V28.383Z" fill="#5EDC5F"/>
<path d="M52.5 39.1562C64.9039 51.5724 85.7683 46.2519 92.875 29.7998C87.0541 49.495 68.3493 54.3495 52.5 45.6777V39.1562Z" fill="#5EDC5F"/>
<path d="M57.6172 41.5237C72.0377 44.6191 85.5821 37.8781 90.173 29.374C84.8843 44.4 69.9717 47.7833 57.6172 41.5237Z" fill="#29003D"/>
</g>
</svg>
