<svg width="25" height="24" viewBox="0 0 25 24" fill="none" xmlns="http://www.w3.org/2000/svg">
<path d="M12.25 9C8.108 9 4.75 12.358 4.75 16.5C4.75 20.642 8.108 24 12.25 24C16.392 24 19.75 20.642 19.75 16.5C19.75 12.358 16.392 9 12.25 9ZM13.626 21H13.25C13.25 21.552 12.802 22 12.25 22C11.698 22 11.25 21.552 11.25 21C10.122 21 9.138 20.374 8.625 19.452C8.263 18.801 8.778 18 9.522 18C9.864 18 10.204 18.162 10.364 18.465C10.532 18.783 10.866 19 11.249 19H13.625C13.969 19 14.249 18.72 14.249 18.376C14.249 18.069 14.029 17.811 13.728 17.76L10.551 17.23C9.457 17.048 8.519 16.246 8.303 15.158C7.969 13.478 9.252 11.999 10.874 11.999H11.25C11.25 11.447 11.698 10.999 12.25 10.999C12.802 10.999 13.25 11.447 13.25 11.999C14.378 11.999 15.362 12.625 15.875 13.547C16.237 14.198 15.722 14.999 14.978 14.999C14.636 14.999 14.296 14.837 14.136 14.534C13.968 14.216 13.635 13.999 13.251 13.999H10.875C10.531 13.999 10.251 14.279 10.251 14.623C10.251 14.93 10.47 15.188 10.772 15.239L13.95 15.769C15.044 15.951 15.981 16.753 16.197 17.841C16.531 19.521 15.248 21 13.626 21ZM24.25 7.5V18.854C24.25 20.196 23.762 21.489 22.874 22.493C22.577 22.828 22.164 23 21.749 23C21.396 23 21.042 22.876 20.757 22.624C20.136 22.076 20.077 21.127 20.626 20.507C21.028 20.051 21.25 19.465 21.25 18.855V10.001H19.141C17.411 8.163 14.974 7.001 12.25 7.001C9.526 7.001 7.083 8.162 5.354 10.001H3.25V18.855C3.25 19.464 3.472 20.051 3.875 20.508C4.423 21.129 4.364 22.077 3.742 22.625C3.457 22.876 3.103 23 2.75 23C2.334 23 1.921 22.829 1.625 22.492C0.738 21.487 0.25 20.195 0.25 18.854V7.5C0.25 4.462 2.712 2 5.75 2H6.25V1.5C6.25 0.671 6.921 0 7.75 0C8.579 0 9.25 0.671 9.25 1.5V2H15.25V1.5C15.25 0.671 15.922 0 16.75 0C17.578 0 18.25 0.671 18.25 1.5V2H18.75C21.788 2 24.25 4.462 24.25 7.5Z" fill="#5BB552"/>
</svg>
