<svg width="24" height="24" viewBox="0 0 24 24" fill="none" xmlns="http://www.w3.org/2000/svg">
<path d="M12.0001 4.74997C10.8126 4.74945 9.64318 5.04062 8.59459 5.59788C7.546 6.15514 6.65034 6.96143 5.98633 7.94589C5.32231 8.93036 4.91028 10.0629 4.78643 11.2438C4.66259 12.4248 4.83073 13.6182 5.27607 14.719C5.3165 14.8109 5.33807 14.91 5.33949 15.0103C5.34092 15.1107 5.32217 15.2104 5.28437 15.3034C5.24656 15.3964 5.19047 15.4809 5.11941 15.5518C5.04835 15.6227 4.96377 15.6787 4.87069 15.7163C4.77761 15.7539 4.67793 15.7725 4.57754 15.7709C4.47715 15.7693 4.37811 15.7475 4.28629 15.7069C4.19446 15.6663 4.11172 15.6077 4.04298 15.5345C3.97423 15.4614 3.92087 15.3751 3.88607 15.281C3.12961 13.4101 3.04307 11.3353 3.6411 9.40793C4.23914 7.48057 5.48499 5.81917 7.16762 4.70514C8.85026 3.5911 10.8662 3.09291 12.8741 3.29496C14.882 3.497 16.7583 4.38686 18.1852 5.81381C19.6122 7.24075 20.502 9.11706 20.7041 11.1249C20.9061 13.1328 20.4079 15.1488 19.2939 16.8314C18.1799 18.5141 16.5185 19.7599 14.5911 20.3579C12.6638 20.956 10.5889 20.8694 8.71807 20.113C8.53769 20.0356 8.39483 19.8906 8.32014 19.7091C8.24545 19.5276 8.24488 19.3241 8.31856 19.1421C8.39225 18.9602 8.5343 18.8144 8.71425 18.7361C8.8942 18.6577 9.09769 18.653 9.28107 18.723C10.2724 19.1231 11.3399 19.299 12.4072 19.2382C13.4745 19.1774 14.5151 18.8813 15.4545 18.3712C16.394 17.861 17.209 17.1494 17.8411 16.2874C18.4733 15.4253 18.907 14.4341 19.1112 13.3848C19.3154 12.3354 19.285 11.2539 19.0222 10.2177C18.7594 9.18151 18.2707 8.21624 17.5911 7.39104C16.9116 6.56584 16.0579 5.90114 15.0913 5.44455C14.1247 4.98795 13.0691 4.75076 12.0001 4.74997Z" fill="black"/>
<path d="M6.24986 12.0003C6.24986 13.3173 6.69286 14.5313 7.43786 15.5013L6.96886 15.9703L6.93986 16.0003H5.76986C5.37217 16.0006 4.99089 16.1589 4.70986 16.4403L3.07286 18.0773C2.9681 18.1821 2.89678 18.3157 2.86789 18.4611C2.83901 18.6065 2.85386 18.7572 2.91057 18.8942C2.96728 19.0311 3.06331 19.1482 3.18652 19.2307C3.30974 19.3131 3.45462 19.3571 3.60286 19.3573H4.64286V20.3973C4.64299 20.5455 4.68704 20.6904 4.76946 20.8136C4.85188 20.9368 4.96897 21.0328 5.10593 21.0896C5.2429 21.1463 5.39359 21.1611 5.53899 21.1322C5.68439 21.1033 5.81797 21.032 5.92286 20.9273L7.55986 19.2893C7.841 19.0085 7.99924 18.6276 7.99986 18.2303V17.0603L8.02986 17.0313L8.49886 16.5633C9.5285 17.3536 10.7952 17.7722 12.093 17.7512C13.3908 17.7302 14.6433 17.2707 15.6468 16.4474C16.6503 15.6242 17.3458 14.4856 17.62 13.2169C17.8943 11.9483 17.7312 10.6241 17.1574 9.45991C16.5836 8.29567 15.6327 7.35983 14.4595 6.8046C13.2863 6.24937 11.9597 6.10742 10.6956 6.40183C9.43146 6.69625 8.30412 7.40971 7.49694 8.42617C6.68976 9.44263 6.25024 10.7023 6.24986 12.0003ZM11.9999 7.75026C12.6668 7.75045 13.3243 7.9076 13.9193 8.20901C14.5143 8.51041 15.0299 8.94761 15.4246 9.48524C15.8193 10.0229 16.0819 10.6458 16.1912 11.3038C16.3005 11.9617 16.2534 12.6361 16.0538 13.2725C15.8541 13.9089 15.5075 14.4893 15.042 14.9669C14.5764 15.4445 14.005 15.8058 13.3739 16.0216C12.7429 16.2374 12.0699 16.3017 11.4094 16.2092C10.7489 16.1167 10.1194 15.8701 9.57186 15.4893L11.2179 13.8423C11.6452 14.0236 12.1222 14.0506 12.5673 13.9187C13.0123 13.7868 13.3976 13.5042 13.6572 13.1194C13.9167 12.7345 14.0343 12.2714 13.9898 11.8093C13.9453 11.3473 13.7414 10.9151 13.4132 10.5869C13.085 10.2587 12.6528 10.0548 12.1908 10.0103C11.7287 9.96583 11.2656 10.0834 10.8808 10.3429C10.4959 10.6025 10.2133 10.9878 10.0814 11.4328C9.94954 11.8779 9.97656 12.355 10.1579 12.7823L8.50986 14.4273C8.06644 13.7898 7.80612 13.0431 7.75717 12.2682C7.70822 11.4932 7.87251 10.7197 8.2322 10.0315C8.59189 9.34339 9.13324 8.76693 9.79745 8.36475C10.4617 7.96258 11.2234 7.75006 11.9999 7.75026ZM6.93986 17.0003L6.99986 17.0593V18.2293C6.99956 18.3618 6.94669 18.4887 6.85286 18.5823L5.64286 19.7923V18.8573C5.64286 18.7247 5.59018 18.5975 5.49641 18.5037C5.40264 18.4099 5.27546 18.3573 5.14286 18.3573H4.20686L5.41686 17.1473C5.46329 17.1007 5.51847 17.0637 5.57921 17.0385C5.63996 17.0133 5.70508 17.0003 5.77086 17.0003H6.93986Z" fill="black"/>
</svg>
