<svg width="25" height="24" viewBox="0 0 25 24" fill="none" xmlns="http://www.w3.org/2000/svg">
<g clip-path="url(#clip0_551_1477)">
<path d="M22.988 12C22.608 10.525 21.822 9.21698 20.75 8.20098V2.99998C20.75 2.99998 18.056 3.00098 16.72 5.02898C16.573 6.85898 15.676 8.51198 14.24 9.61898L14.266 14H6.25V9.60998C5.604 9.11398 5.081 8.50498 4.674 7.82798C4.262 8.16798 3.88 8.54298 3.542 8.95798C3.094 8.85898 2.75 8.47798 2.75 7.99998C2.75 7.44898 3.199 6.99998 3.75 6.99998V4.99998C2.096 4.99998 0.75 6.34598 0.75 7.99998C0.75 9.19398 1.456 10.218 2.468 10.701C2.011 11.708 1.75 12.822 1.75 14C1.75 16.959 3.361 19.537 5.75 20.921V24H10.75V22H14.75V24H19.75V20.613C21.047 19.729 22.066 18.473 22.663 17H24.75V12H22.988ZM18.25 14C17.422 14 16.75 13.328 16.75 12.5C16.75 11.672 17.422 11 18.25 11C19.078 11 19.75 11.672 19.75 12.5C19.75 13.328 19.078 14 18.25 14ZM5.835 3.61898C6.162 1.91498 7.511 0.509982 9.19 0.121982C10.562 -0.196018 11.967 0.115982 13.048 0.975982C14.129 1.83598 14.749 3.11998 14.749 4.49998C14.749 5.89198 14.108 7.15998 13.043 7.99998H7.46C6.156 6.98098 5.508 5.32398 5.835 3.61898ZM12.242 9.99998L12.25 12H8.25V9.99998H12.242Z" fill="#5BB552"/>
</g>
<defs>
<clipPath id="clip0_551_1477">
<rect width="24" height="24" fill="white" transform="translate(0.75)"/>
</clipPath>
</defs>
</svg>
