<svg width="25" height="24" viewBox="0 0 25 24" fill="none" xmlns="http://www.w3.org/2000/svg">
<g clip-path="url(#clip0_504_988)">
<path d="M5.73379 7.72989C7.15303 5.48625 9.65342 4 12.5002 4C15.347 4 17.8474 5.48625 19.2667 7.72989L20.9569 6.66071C19.1865 3.86199 16.0612 2 12.5002 2C8.93928 2 5.81393 3.86199 4.04356 6.66071L5.73379 7.72989ZM12.5002 20C9.65342 20 7.15303 18.5138 5.73379 16.2701L4.04356 17.3393C5.81393 20.138 8.93928 22 12.5002 22C16.0612 22 19.1865 20.138 20.9569 17.3393L19.2667 16.2701C17.8474 18.5138 15.347 20 12.5002 20ZM12.5 12C14.1569 12 15.5 10.6569 15.5 9C15.5 7.34315 14.1569 6 12.5 6C10.8431 6 9.5 7.34315 9.5 9C9.5 10.6569 10.8431 12 12.5 12ZM12.5 13C14.7091 13 16.5 14.7909 16.5 17H8.5C8.5 14.7909 10.2909 13 12.5 13ZM6.5 12C6.5 13.6569 5.15685 15 3.5 15C1.84315 15 0.5 13.6569 0.5 12C0.5 10.3431 1.84315 9 3.5 9C5.15685 9 6.5 10.3431 6.5 12ZM21.5 15C23.1569 15 24.5 13.6569 24.5 12C24.5 10.3431 23.1569 9 21.5 9C19.8431 9 18.5 10.3431 18.5 12C18.5 13.6569 19.8431 15 21.5 15Z" fill="#29003D"/>
</g>
<defs>
<clipPath id="clip0_504_988">
<rect width="24" height="24" fill="white" transform="translate(0.5)"/>
</clipPath>
</defs>
</svg>
